<?xml version="1.0" standalone="no"?>
<!DOCTYPE svg PUBLIC "-//W3C//DTD SVG 20010904//EN"
 "http://www.w3.org/TR/2001/REC-SVG-20010904/DTD/svg10.dtd">
<svg version="1.0" xmlns="http://www.w3.org/2000/svg"
 width="500.000000pt" height="500.000000pt" viewBox="0 0 500.000000 500.000000"
 preserveAspectRatio="xMidYMid meet">
<metadata>
Created by potrace 1.14, written by Peter Selinger 2001-2017
</metadata>
<g transform="translate(0.000000,500.000000) scale(0.100000,-0.100000)"
fill="#000000" stroke="none">
<path d="M3080 4440 l0 -40 -40 0 -40 0 0 -40 c0 -39 -1 -40 -35 -40 -34 0
-35 -1 -35 -40 l0 -40 -40 0 -40 0 0 -80 0 -80 -40 0 -40 0 0 -75 0 -75 -40 0
-40 0 0 -114 0 -115 -37 -3 -38 -3 -3 -237 -2 -238 -41 0 -41 0 4 -80 3 -80
-37 0 c-38 0 -38 0 -38 -40 l0 -40 -40 0 -40 0 0 -40 0 -40 -40 0 -40 0 0 -40
0 -40 -40 0 -40 0 0 -40 0 -40 -40 0 -40 0 0 -40 0 -40 -80 0 -80 0 0 -35 0
-35 -80 0 -80 0 0 -40 0 -40 -75 0 -75 0 0 -35 0 -35 -80 0 -80 0 0 -40 0 -40
-40 0 -40 0 0 -40 0 -40 -40 0 c-40 0 -40 0 -40 -39 0 -39 -1 -40 -37 -43 -37
-3 -38 -4 -38 -41 0 -36 -1 -37 -37 -37 -38 0 -38 0 -38 -40 l0 -40 -40 0 -40
0 0 -80 0 -80 -40 0 -40 0 0 -80 0 -80 -40 0 -40 0 0 -40 0 -40 -75 0 -75 0 0
155 0 155 40 0 40 0 0 40 0 40 80 0 80 0 0 85 0 85 -40 0 -40 0 0 40 0 40
-205 0 -205 0 0 -40 0 -40 -75 0 -75 0 0 -40 0 -40 -40 0 -40 0 0 -40 0 -40
-40 0 -40 0 0 -40 0 -40 -45 0 -45 0 0 -205 0 -205 45 0 45 0 0 -40 0 -40 40
0 40 0 0 -40 0 -40 40 0 c39 0 40 -1 40 -35 l0 -35 115 0 115 0 0 -35 0 -35
160 0 160 0 0 -160 0 -160 40 0 40 0 0 -80 0 -80 40 0 40 0 0 -40 0 -40 40 0
40 0 0 -40 c0 -40 0 -40 38 -40 l38 0 -4 -40 -4 -40 636 0 636 0 0 120 0 120
120 0 120 0 0 40 0 40 75 0 75 0 0 -40 c0 -39 1 -40 35 -40 l35 0 0 -80 0 -80
40 0 40 0 0 -40 0 -40 326 0 326 0 -4 40 -4 40 158 0 158 0 0 40 0 40 40 0 40
0 0 125 0 125 -40 0 -40 0 0 80 0 80 -40 0 -40 0 0 305 0 305 40 0 40 0 0 200
0 200 40 0 40 0 0 120 0 120 75 0 75 0 0 40 0 40 115 0 115 0 0 -80 0 -80 40
0 40 0 0 -40 0 -40 125 0 125 0 0 40 0 40 45 0 45 0 0 195 0 195 -45 0 -45 0
0 40 0 40 -40 0 -40 0 0 40 0 40 -40 0 -40 0 0 40 0 40 -80 0 -80 0 0 35 c0
34 1 35 40 35 l40 0 0 40 0 40 80 0 80 0 0 40 0 40 40 0 40 0 0 165 0 165 -40
0 -40 0 0 40 0 40 -80 0 -80 0 0 40 0 40 -40 0 -40 0 0 75 0 75 -40 0 -40 0 0
40 0 40 -40 0 c-39 0 -40 1 -40 35 0 34 1 35 40 35 l40 0 0 240 0 240 -40 0
-40 0 0 40 0 40 -80 0 -80 0 0 -40 0 -40 -40 0 -40 0 0 -40 0 -40 -40 0 -40 0
0 -40 0 -40 -40 0 -40 0 0 -40 0 -40 -270 0 -270 0 0 120 0 120 -40 0 -40 0 0
40 0 40 -125 0 -125 0 0 -40z"/>
</g>
</svg>
